<svg width="19" height="17" viewBox="0 0 19 17" fill="none" xmlns="http://www.w3.org/2000/svg">
<defs>
  <linearGradient id="grad" x1="18.5729" y1="21.2679" x2="-0.0475692" y2="11.6724" gradientUnits="userSpaceOnUse">
    <stop stop-color="#602BE9"/>
    <stop offset="1" stop-color="#BF3FD4"/>
  </linearGradient>
  <mask id="eyeMask">
    <rect x="0" y="0" width="19" height="17" fill="white"/>
    <path id="eyeL" d="M6.56749 6.56744C6.81632 6.56744 7.05496 6.66628 7.2309 6.84223C7.40685 7.01818 7.5057 7.25681 7.5057 7.50564V9.38205C7.5057 9.63088 7.40685 9.86952 7.2309 10.0455C7.05496 10.2214 6.81632 10.3203 6.56749 10.3203C6.31866 10.3203 6.08003 10.2214 5.90408 10.0455C5.72813 9.86952 5.62929 9.63088 5.62929 9.38205V7.50564C5.62929 7.25681 5.72813 7.01818 5.90408 6.84223C6.08003 6.66628 6.31866 6.56744 6.56749 6.56744Z" fill="black"/>
    <path id="eyeR" d="M12.1967 6.56744C12.4265 6.56747 12.6483 6.65183 12.82 6.80453C12.9918 6.95724 13.1015 7.16765 13.1284 7.39587L13.1349 7.50564V9.38205C13.1347 9.62118 13.0431 9.85118 12.8789 10.0251C12.7148 10.199 12.4904 10.3036 12.2517 10.3176C12.013 10.3316 11.7779 10.254 11.5946 10.1005C11.4112 9.94699 11.2933 9.72928 11.2651 9.49182L11.2585 9.38205V7.50564C11.2585 7.25681 11.3574 7.01818 11.5333 6.84223C11.7093 6.66628 11.9479 6.56744 12.1967 6.56744Z" fill="black"/>
  </mask>
  <style>
    @keyframes blink {
      0%, 75%   { transform: scaleY(1); }
      83%       { transform: scaleY(0.05); }
      91%, 100% { transform: scaleY(1); }
    }
    #eyeL, #eyeR {
      transform-box: fill-box;
      transform-origin: center;
      animation: blink 2s ease-in-out infinite;
    }
  </style>
</defs>
<path d="M4.69108 0C3.44694 0 2.25376 0.494232 1.37403 1.37397C0.494287 2.25371 5.53131e-05 3.44689 5.53131e-05 4.69103V12.1967C5.53131e-05 13.4408 0.494287 14.634 1.37403 15.5137C2.25376 16.3935 3.44694 16.8877 4.69108 16.8877H17.826C18.0748 16.8877 18.3134 16.7888 18.4894 16.6129C18.6653 16.437 18.7642 16.1983 18.7642 15.9495V4.69103C18.7642 3.44689 18.2699 2.25371 17.3902 1.37397C16.5105 0.494232 15.3173 0 14.0731 0H4.69108Z" fill="url(#grad)" mask="url(#eyeMask)"/>
</svg>
