<svg width="84" height="17" viewBox="0 0 84 17" fill="none" xmlns="http://www.w3.org/2000/svg">
<defs>
  <linearGradient id="grad" x1="18.5729" y1="21.2679" x2="-0.0475692" y2="11.6724" gradientUnits="userSpaceOnUse">
    <stop stop-color="#602BE9"/>
    <stop offset="1" stop-color="#BF3FD4"/>
  </linearGradient>
  <!-- Mask: white = show gradient, black = transparent (eye holes) -->
  <mask id="eyeMask">
    <rect x="0" y="0" width="19" height="17" fill="white"/>
    <path id="eyeL" d="M6.56749 6.56744C6.81632 6.56744 7.05496 6.66628 7.2309 6.84223C7.40685 7.01818 7.5057 7.25681 7.5057 7.50564V9.38205C7.5057 9.63088 7.40685 9.86952 7.2309 10.0455C7.05496 10.2214 6.81632 10.3203 6.56749 10.3203C6.31866 10.3203 6.08003 10.2214 5.90408 10.0455C5.72813 9.86952 5.62929 9.63088 5.62929 9.38205V7.50564C5.62929 7.25681 5.72813 7.01818 5.90408 6.84223C6.08003 6.66628 6.31866 6.56744 6.56749 6.56744Z" fill="black"/>
    <path id="eyeR" d="M12.1967 6.56744C12.4265 6.56747 12.6483 6.65183 12.82 6.80453C12.9918 6.95724 13.1015 7.16765 13.1284 7.39587L13.1349 7.50564V9.38205C13.1347 9.62118 13.0431 9.85118 12.8789 10.0251C12.7148 10.199 12.4904 10.3036 12.2517 10.3176C12.013 10.3316 11.7779 10.254 11.5946 10.1005C11.4112 9.94699 11.2933 9.72928 11.2651 9.49182L11.2585 9.38205V7.50564C11.2585 7.25681 11.3574 7.01818 11.5333 6.84223C11.7093 6.66628 11.9479 6.56744 12.1967 6.56744Z" fill="black"/>
  </mask>
  <style>
    @keyframes blink {
      0%, 75%   { transform: scaleY(1); }
      83%       { transform: scaleY(0.05); }
      91%, 100% { transform: scaleY(1); }
    }
    #eyeL, #eyeR {
      transform-box: fill-box;
      transform-origin: center;
      animation: blink 2s ease-in-out infinite;
    }
  </style>
</defs>

<!-- Icon: gradient frame with animated eye mask -->
<path d="M4.69108 0C3.44694 0 2.25376 0.494232 1.37403 1.37397C0.494287 2.25371 5.53131e-05 3.44689 5.53131e-05 4.69103V12.1967C5.53131e-05 13.4408 0.494287 14.634 1.37403 15.5137C2.25376 16.3935 3.44694 16.8877 4.69108 16.8877H17.826C18.0748 16.8877 18.3134 16.7888 18.4894 16.6129C18.6653 16.437 18.7642 16.1983 18.7642 15.9495V4.69103C18.7642 3.44689 18.2699 2.25371 17.3902 1.37397C16.5105 0.494232 15.3173 0 14.0731 0H4.69108Z" fill="url(#grad)" mask="url(#eyeMask)"/>

<!-- Wordmark: y a a r o -->
<path d="M31.7841 0.702984C32.1635 0.702984 32.4772 0.834308 32.7253 1.09696C32.9733 1.34501 33.0973 1.65873 33.0973 2.03811V11.3402C33.0973 12.6826 32.842 13.7478 32.3313 14.5357C31.8352 15.3383 31.164 15.9146 30.3177 16.2648C29.4713 16.615 28.5229 16.7901 27.4723 16.7901C27.0054 16.7901 26.5093 16.7537 25.984 16.6807C25.4587 16.6077 25.0282 16.4983 24.6926 16.3524C24.2549 16.1627 23.9485 15.9219 23.7734 15.6301C23.6128 15.3529 23.5837 15.0537 23.6858 14.7327C23.8171 14.3096 24.0287 14.0178 24.3205 13.8572C24.6124 13.7113 24.9188 13.6967 25.2398 13.8135C25.4733 13.8864 25.7797 13.9959 26.1591 14.1418C26.5384 14.3023 26.9762 14.3825 27.4723 14.3825C28.1435 14.3825 28.698 14.2877 29.1357 14.098C29.5881 13.9229 29.9237 13.6165 30.1426 13.1787C30.376 12.7556 30.4928 12.1719 30.4928 11.4278V9.96131L30.9524 10.4866C30.7043 10.9681 30.3906 11.3694 30.0112 11.6904C29.6464 11.9968 29.2087 12.2303 28.698 12.3908C28.1873 12.5513 27.6036 12.6316 26.947 12.6316C26.1737 12.6316 25.4952 12.4565 24.9115 12.1063C24.3424 11.7415 23.8974 11.2454 23.5764 10.6179C23.2554 9.9759 23.0948 9.24632 23.0948 8.4292V2.03811C23.0948 1.65873 23.2189 1.34501 23.4669 1.09696C23.715 0.834308 24.0287 0.702984 24.4081 0.702984C24.7875 0.702984 25.1012 0.834308 25.3492 1.09696C25.5973 1.34501 25.7213 1.65873 25.7213 2.03811V7.64125C25.7213 8.5897 25.9256 9.26091 26.3342 9.65488C26.7573 10.0343 27.341 10.224 28.0852 10.224C28.5959 10.224 29.0263 10.1291 29.3765 9.93942C29.7267 9.73514 29.9966 9.44331 30.1863 9.06393C30.376 8.66996 30.4709 8.19573 30.4709 7.64125V2.03811C30.4709 1.65873 30.5949 1.34501 30.8429 1.09696C31.091 0.834308 31.4047 0.702984 31.7841 0.702984Z" fill="white"/>
<path d="M45.5274 0.484093C45.9067 0.484093 46.2205 0.608121 46.4685 0.856177C46.7166 1.10423 46.8406 1.42525 46.8406 1.81922V11.0775C46.8406 11.4569 46.7166 11.7779 46.4685 12.0406C46.2205 12.2886 45.9067 12.4127 45.5274 12.4127C45.148 12.4127 44.8343 12.2886 44.5862 12.0406C44.3382 11.7779 44.2141 11.4569 44.2141 11.0775V10.0051L44.6957 10.202C44.6957 10.3917 44.5935 10.6252 44.3892 10.9024C44.1849 11.1651 43.9077 11.4277 43.5575 11.6904C43.2073 11.953 42.7915 12.1792 42.3099 12.3689C41.843 12.544 41.3323 12.6315 40.7778 12.6315C39.771 12.6315 38.859 12.3762 38.0419 11.8655C37.2248 11.3402 36.5755 10.6252 36.0939 9.72053C35.627 8.80126 35.3936 7.75067 35.3936 6.56876C35.3936 5.37225 35.627 4.32166 36.0939 3.41699C36.5755 2.49772 37.2175 1.78274 38.02 1.27204C38.8226 0.74674 39.7126 0.484093 40.6903 0.484093C41.3177 0.484093 41.8941 0.578938 42.4194 0.768628C42.9447 0.958317 43.397 1.19908 43.7764 1.49091C44.1704 1.78274 44.4695 2.08186 44.6738 2.38829C44.8926 2.68012 45.0021 2.92817 45.0021 3.13245L44.2141 3.41699V1.81922C44.2141 1.43984 44.3382 1.12612 44.5862 0.878064C44.8343 0.615417 45.148 0.484093 45.5274 0.484093ZM41.1061 10.2239C41.7482 10.2239 42.3099 10.0634 42.7915 9.74241C43.273 9.4214 43.6451 8.98366 43.9077 8.42918C44.1849 7.8747 44.3236 7.25456 44.3236 6.56876C44.3236 5.86837 44.1849 5.24093 43.9077 4.68645C43.6451 4.13197 43.273 3.69423 42.7915 3.37321C42.3099 3.0522 41.7482 2.89169 41.1061 2.89169C40.4787 2.89169 39.9242 3.0522 39.4427 3.37321C38.9612 3.69423 38.5818 4.13197 38.3046 4.68645C38.0419 5.24093 37.9106 5.86837 37.9106 6.56876C37.9106 7.25456 38.0419 7.8747 38.3046 8.42918C38.5818 8.98366 38.9612 9.4214 39.4427 9.74241C39.9242 10.0634 40.4787 10.2239 41.1061 10.2239Z" fill="white"/>
<path d="M59.4849 0.484093C59.8643 0.484093 60.178 0.608121 60.426 0.856177C60.6741 1.10423 60.7981 1.42525 60.7981 1.81922V11.0775C60.7981 11.4569 60.6741 11.7779 60.426 12.0406C60.178 12.2886 59.8643 12.4127 59.4849 12.4127C59.1055 12.4127 58.7918 12.2886 58.5437 12.0406C58.2957 11.7779 58.1717 11.4569 58.1717 11.0775V10.0051L58.6532 10.202C58.6532 10.3917 58.551 10.6252 58.3467 10.9024C58.1425 11.1651 57.8652 11.4277 57.515 11.6904C57.1648 11.953 56.749 12.1792 56.2675 12.3689C55.8005 12.544 55.2898 12.6315 54.7353 12.6315C53.7285 12.6315 52.8166 12.3762 51.9994 11.8655C51.1823 11.3402 50.533 10.6252 50.0515 9.72053C49.5845 8.80126 49.3511 7.75067 49.3511 6.56876C49.3511 5.37225 49.5845 4.32166 50.0515 3.41699C50.533 2.49772 51.175 1.78274 51.9775 1.27204C52.7801 0.74674 53.6702 0.484093 54.6478 0.484093C55.2752 0.484093 55.8516 0.578938 56.3769 0.768628C56.9022 0.958317 57.3545 1.19908 57.7339 1.49091C58.1279 1.78274 58.427 2.08186 58.6313 2.38829C58.8502 2.68012 58.9596 2.92817 58.9596 3.13245L58.1717 3.41699V1.81922C58.1717 1.43984 58.2957 1.12612 58.5437 0.878064C58.7918 0.615417 59.1055 0.484093 59.4849 0.484093ZM55.0637 10.2239C55.7057 10.2239 56.2675 10.0634 56.749 9.74241C57.2305 9.4214 57.6026 8.98366 57.8652 8.42918C58.1425 7.8747 58.2811 7.25456 58.2811 6.56876C58.2811 5.86837 58.1425 5.24093 57.8652 4.68645C57.6026 4.13197 57.2305 3.69423 56.749 3.37321C56.2675 3.0522 55.7057 2.89169 55.0637 2.89169C54.4362 2.89169 53.8817 3.0522 53.4002 3.37321C52.9187 3.69423 52.5393 4.13197 52.2621 4.68645C51.9994 5.24093 51.8681 5.86837 51.8681 6.56876C51.8681 7.25456 51.9994 7.8747 52.2621 8.42918C52.5393 8.98366 52.9187 9.4214 53.4002 9.74241C53.8817 10.0634 54.4362 10.2239 55.0637 10.2239Z" fill="white"/>
<path d="M64.955 12.4127C64.5756 12.4127 64.2619 12.2886 64.0138 12.0406C63.7658 11.7779 63.6417 11.4569 63.6417 11.0775V2.03809C63.6417 1.65871 63.7658 1.34499 64.0138 1.09694C64.2619 0.834289 64.5756 0.702965 64.955 0.702965C65.3343 0.702965 65.6481 0.834289 65.8961 1.09694C66.1442 1.34499 66.2682 1.65871 66.2682 2.03809V4.09549L66.115 2.62905C66.2755 2.27885 66.4798 1.97243 66.7278 1.70978C66.9905 1.43254 67.2823 1.20637 67.6033 1.03127C67.9243 0.841584 68.2672 0.702965 68.632 0.615416C68.9968 0.527867 69.3616 0.484093 69.7264 0.484093C70.1641 0.484093 70.5289 0.608121 70.8208 0.856177C71.1272 1.10423 71.2804 1.39606 71.2804 1.73167C71.2804 2.21319 71.1564 2.56338 70.9083 2.78226C70.6602 2.98654 70.3903 3.08868 70.0985 3.08868C69.8212 3.08868 69.5659 3.03761 69.3324 2.93547C69.1135 2.83333 68.8582 2.78226 68.5664 2.78226C68.3037 2.78226 68.0338 2.84792 67.7565 2.97924C67.4939 3.09598 67.2458 3.28567 67.0124 3.54831C66.7935 3.81096 66.6111 4.13927 66.4652 4.53324C66.3339 4.91262 66.2682 5.36496 66.2682 5.89025V11.0775C66.2682 11.4569 66.1442 11.7779 65.8961 12.0406C65.6481 12.2886 65.3343 12.4127 64.955 12.4127Z" fill="white"/>
<path d="M83.9999 6.56876C83.9999 7.76526 83.73 8.82315 83.1901 9.74242C82.6648 10.6471 81.9498 11.3548 81.0452 11.8655C80.1551 12.3762 79.1556 12.6315 78.0466 12.6315C76.9377 12.6315 75.9308 12.3762 75.0262 11.8655C74.1361 11.3548 73.4211 10.6471 72.8812 9.74242C72.3559 8.82315 72.0933 7.76526 72.0933 6.56876C72.0933 5.37225 72.3559 4.32166 72.8812 3.41699C73.4211 2.49772 74.1361 1.78274 75.0262 1.27204C75.9308 0.74674 76.9377 0.484093 78.0466 0.484093C79.1556 0.484093 80.1551 0.74674 81.0452 1.27204C81.9498 1.78274 82.6648 2.49772 83.1901 3.41699C83.73 4.32166 83.9999 5.37225 83.9999 6.56876ZM81.3735 6.56876C81.3735 5.82459 81.2203 5.18256 80.9138 4.64268C80.622 4.0882 80.2207 3.65775 79.71 3.35133C79.2139 3.0449 78.6595 2.89169 78.0466 2.89169C77.4338 2.89169 76.872 3.0449 76.3613 3.35133C75.8652 3.65775 75.4639 4.0882 75.1575 4.64268C74.8657 5.18256 74.7197 5.82459 74.7197 6.56876C74.7197 7.29834 74.8657 7.94036 75.1575 8.49484C75.4639 9.03473 75.8652 9.45788 76.3613 9.7643C76.872 10.0707 77.4338 10.2239 78.0466 10.2239C78.6595 10.2239 79.2139 10.0707 79.71 9.7643C80.2207 9.45788 80.622 9.03473 80.9138 8.49484C81.2203 7.94036 81.3735 7.29834 81.3735 6.56876Z" fill="white"/>
</svg>
